<?xml version="1.0" encoding="utf-8"?>
<!-- Generator: Adobe Illustrator 25.2.3, SVG Export Plug-In . SVG Version: 6.00 Build 0)  -->
<svg version="1.1" id="Camada_1" xmlns="http://www.w3.org/2000/svg" x="0px" y="0px"
	 viewBox="0 0 48 48" style="enable-background:new 0 0 48 48;" xml:space="preserve">
<path d="M12,7c0-0.8,0.3-1.5,0.9-2.1C13.5,4.3,14.2,4,15,4h18c0.8,0,1.5,0.3,2.1,0.9C35.7,5.5,36,6.2,36,7v34c0,0.8-0.3,1.5-0.9,2.1
	C34.5,43.7,33.8,44,33,44H15c-0.8,0-1.5-0.3-2.1-0.9C12.3,42.5,12,41.8,12,41V7z M15,7v34h18v-6.5h-9v-3h9v-6h-9v-3h9v-6h-9v-3h9V7
	H15z M24,13.5v3V13.5z M24,22.5v3V22.5z M24,31.5v3V31.5z"/>
</svg>
